<svg width="40" height="50" viewBox="0 0 40 50" fill="none" xmlns="http://www.w3.org/2000/svg">
<mask id="mask0_2_67" style="mask-type:luminance" maskUnits="userSpaceOnUse" x="0" y="31" width="40" height="19">
<path fill-rule="evenodd" clip-rule="evenodd" d="M0 31.2849H40V49.4661H0V31.2849Z" fill="white"/>
</mask>
<g mask="url(#mask0_2_67)">
<path fill-rule="evenodd" clip-rule="evenodd" d="M20.0025 34.9833C9.2423 34.9833 3.78772 36.7881 3.78772 40.3508C3.78772 43.9456 9.2423 45.7677 20.0025 45.7677C30.7601 45.7677 36.2122 43.9629 36.2122 40.4002C36.2122 36.8054 30.7601 34.9833 20.0025 34.9833ZM20.0023 49.466C15.0553 49.466 -0.000366211 49.466 -0.000366211 40.3508C-0.000366211 32.2243 11.4164 31.2849 20.0023 31.2849C24.9493 31.2849 39.9999 31.2849 39.9999 40.4001C39.9999 48.5267 28.5857 49.466 20.0023 49.466Z" fill="#4D4D4D"/>
</g>
<mask id="mask1_2_67" style="mask-type:luminance" maskUnits="userSpaceOnUse" x="6" y="0" width="28" height="27">
<path fill-rule="evenodd" clip-rule="evenodd" d="M6.59082 0.475229H33.4093V26.6561H6.59082V0.475229Z" fill="white"/>
</mask>
<g mask="url(#mask1_2_67)">
<path fill-rule="evenodd" clip-rule="evenodd" d="M20.0023 3.99494C14.5957 3.99494 10.1967 8.28749 10.1967 13.5663C10.179 18.8278 14.5452 23.1179 19.9291 23.1376L20.0023 24.898V23.1376C25.4064 23.1376 29.8029 18.8426 29.8029 13.5663C29.8029 8.28749 25.4064 3.99494 20.0023 3.99494M20.0026 26.6558H19.9218C12.543 26.6336 6.56565 20.7582 6.5909 13.5587C6.5909 6.34694 12.6061 0.473948 20.0026 0.473948C27.3966 0.473948 33.4093 6.34694 33.4093 13.5661C33.4093 20.7853 27.3966 26.6558 20.0026 26.6558" fill="#4D4D4D"/>
</g>
</svg>
