<svg width="42" height="50" viewBox="0 0 42 50" fill="none" xmlns="http://www.w3.org/2000/svg">
<path fill-rule="evenodd" clip-rule="evenodd" d="M8.26978 13.8819L9.53608 31.8628C9.62848 33.2467 10.5756 34.2846 11.7327 34.2846H11.7411H34.6543H34.6585C35.7526 34.2846 36.6871 33.3119 36.8425 32.0207L38.8375 15.5767C38.8837 15.1856 38.8018 14.7945 38.6023 14.4786C38.4049 14.1602 38.1151 13.9546 37.7875 13.8994C37.3486 13.9195 19.1352 13.8894 8.26978 13.8819ZM11.7284 38.0452C8.96272 38.0452 6.62121 35.468 6.39651 32.1711L4.4729 4.85885L1.30819 4.207C0.449286 4.02649 -0.124016 3.05625 0.0229847 2.03085C0.174185 1.00545 1.00369 0.33856 1.84369 0.499014L6.21171 1.40157C6.91521 1.54949 7.45071 2.24646 7.51161 3.09887L8.00512 10.1212C37.9848 10.1363 38.0814 10.1538 38.2263 10.1739C39.396 10.377 40.425 11.1065 41.1264 12.2297C41.8278 13.3504 42.1218 14.7318 41.9538 16.1157L39.9609 32.5572C39.585 35.6861 37.3086 38.0452 34.6626 38.0452H34.6521H11.7452H11.7284Z" fill="#4D4D4D"/>
<path fill-rule="evenodd" clip-rule="evenodd" d="M31.2858 23.1488H25.4645C24.593 23.1488 23.8895 22.3065 23.8895 21.2685C23.8895 20.2306 24.593 19.3882 25.4645 19.3882H31.2858C32.1552 19.3882 32.8608 20.2306 32.8608 21.2685C32.8608 22.3065 32.1552 23.1488 31.2858 23.1488Z" fill="#4D4D4D"/>
<path fill-rule="evenodd" clip-rule="evenodd" d="M10.8249 44.8558C11.457 44.8558 11.9673 45.465 11.9673 46.2196C11.9673 46.9742 11.457 47.586 10.8249 47.586C10.1907 47.586 9.68042 46.9742 9.68042 46.2196C9.68042 45.465 10.1907 44.8558 10.8249 44.8558Z" fill="#4D4D4D"/>
<mask id="mask0_2_80" style="mask-type:luminance" maskUnits="userSpaceOnUse" x="9" y="44" width="3" height="4">
<path fill-rule="evenodd" clip-rule="evenodd" d="M9.67957 46.2186C9.67957 46.9758 10.1899 47.5875 10.8262 47.5875C11.4583 47.5875 11.9686 46.9758 11.9686 46.2186C11.9686 45.464 11.4583 44.8548 10.8262 44.8548C10.1899 44.8548 9.67957 45.464 9.67957 46.2186Z" fill="white"/>
</mask>
<g mask="url(#mask0_2_80)">
<path fill-rule="evenodd" clip-rule="evenodd" d="M-0.818481 60.1204H22.4685V32.3193H-0.818481V60.1204Z" fill="#4D4D4D"/>
</g>
<path fill-rule="evenodd" clip-rule="evenodd" d="M10.8229 45.7054C10.5856 45.7054 10.3924 45.9361 10.3924 46.2194C10.3924 46.7885 11.2555 46.7885 11.2555 46.2194C11.2555 45.9361 11.0602 45.7054 10.8229 45.7054ZM10.823 49.4661C9.3236 49.4661 8.10559 48.0094 8.10559 46.2194C8.10559 44.4293 9.3236 42.9752 10.823 42.9752C12.3224 42.9752 13.5425 44.4293 13.5425 46.2194C13.5425 48.0094 12.3224 49.4661 10.823 49.4661Z" fill="#4D4D4D"/>
<path fill-rule="evenodd" clip-rule="evenodd" d="M34.5138 44.8558C35.1459 44.8558 35.6583 45.465 35.6583 46.2196C35.6583 46.9743 35.1459 47.586 34.5138 47.586C33.8796 47.586 33.3693 46.9743 33.3693 46.2196C33.3693 45.465 33.8796 44.8558 34.5138 44.8558Z" fill="#4D4D4D"/>
<mask id="mask1_2_80" style="mask-type:luminance" maskUnits="userSpaceOnUse" x="33" y="44" width="3" height="4">
<path fill-rule="evenodd" clip-rule="evenodd" d="M33.3696 46.2186C33.3696 46.9758 33.8799 47.5875 34.5141 47.5875C35.1441 47.5875 35.6586 46.9758 35.6586 46.2186C35.6586 45.464 35.1441 44.8548 34.5141 44.8548C33.8799 44.8548 33.3696 45.464 33.3696 46.2186Z" fill="white"/>
</mask>
<g mask="url(#mask1_2_80)">
<path fill-rule="evenodd" clip-rule="evenodd" d="M22.8696 60.1204H46.1587V32.3193H22.8696V60.1204Z" fill="#4D4D4D"/>
</g>
<path fill-rule="evenodd" clip-rule="evenodd" d="M34.5116 45.7054C34.2764 45.7054 34.0832 45.9361 34.0832 46.2194C34.0853 46.7935 34.9463 46.7885 34.9442 46.2194C34.9442 45.9361 34.7489 45.7054 34.5116 45.7054ZM34.5115 49.4661C33.0121 49.4661 31.7941 48.0094 31.7941 46.2194C31.7941 44.4293 33.0121 42.9752 34.5115 42.9752C36.013 42.9752 37.2331 44.4293 37.2331 46.2194C37.2331 48.0094 36.013 49.4661 34.5115 49.4661Z" fill="#4D4D4D"/>
</svg>
