<svg width="18" height="19" viewBox="0 0 18 19" fill="none" xmlns="http://www.w3.org/2000/svg">
<path opacity="0.2" d="M13.5 8.375C13.5 9.48752 13.1701 10.5751 12.552 11.5001C11.9339 12.4251 11.0554 13.1461 10.0276 13.5718C8.99976 13.9976 7.86876 14.109 6.77762 13.8919C5.68648 13.6749 4.6842 13.1391 3.89753 12.3525C3.11086 11.5658 2.57513 10.5635 2.35809 9.47238C2.14104 8.38124 2.25244 7.25024 2.67818 6.22241C3.10392 5.19457 3.82489 4.31607 4.74992 3.69798C5.67495 3.0799 6.76248 2.75 7.875 2.75C8.61369 2.75 9.34514 2.89549 10.0276 3.17818C10.7101 3.46086 11.3301 3.87519 11.8525 4.39752C12.3748 4.91985 12.7891 5.53995 13.0718 6.22241C13.3545 6.90486 13.5 7.63631 13.5 8.375Z" fill="#EEEEEE" fill-opacity="0.9"/>
<path d="M16.148 15.852L12.6281 12.3322C13.6503 11.1062 14.1605 9.53339 14.0526 7.94084C13.9446 6.3483 13.2268 4.85869 12.0486 3.78189C10.8703 2.70509 9.32222 2.12402 7.72642 2.15956C6.13062 2.1951 4.60995 2.8445 3.48077 3.97269C2.35159 5.10087 1.70084 6.62096 1.66389 8.21672C1.62695 9.81249 2.20665 11.3611 3.28241 12.5403C4.35816 13.7195 5.84714 14.4386 7.43959 14.548C9.03203 14.6573 10.6053 14.1485 11.8322 13.1274L15.352 16.648C15.4043 16.7002 15.4663 16.7417 15.5346 16.77C15.6029 16.7983 15.6761 16.8128 15.75 16.8128C15.8239 16.8128 15.8971 16.7983 15.9654 16.77C16.0337 16.7417 16.0957 16.7002 16.148 16.648C16.2002 16.5957 16.2417 16.5337 16.27 16.4654C16.2983 16.3971 16.3128 16.3239 16.3128 16.25C16.3128 16.1761 16.2983 16.1029 16.27 16.0346C16.2417 15.9663 16.2002 15.9043 16.148 15.852ZM2.8125 8.375C2.8125 7.37373 3.10941 6.39495 3.66568 5.56242C4.22196 4.7299 5.01261 4.08103 5.93766 3.69786C6.86271 3.31469 7.88061 3.21444 8.86264 3.40977C9.84467 3.60511 10.7467 4.08727 11.4547 4.79527C12.1627 5.50327 12.6449 6.40532 12.8402 7.38735C13.0356 8.36938 12.9353 9.38728 12.5521 10.3123C12.169 11.2374 11.5201 12.028 10.6876 12.5843C9.85505 13.1406 8.87627 13.4375 7.875 13.4375C6.5328 13.436 5.246 12.9022 4.29692 11.9531C3.34783 11.004 2.81399 9.7172 2.8125 8.375Z" fill="#EEEEEE"/>
</svg>
