<svg width="33" height="32" viewBox="0 0 33 32" fill="none" xmlns="http://www.w3.org/2000/svg">
<path d="M15.0734 2.00861C15.5224 0.626642 17.4776 0.626644 17.9266 2.00861L20.4025 9.62868C20.7372 10.6587 21.6971 11.3561 22.7801 11.3561H30.7924C32.2454 11.3561 32.8496 13.2156 31.674 14.0697L25.192 18.7791C24.3158 19.4157 23.9491 20.5441 24.2838 21.5742L26.7597 29.1943C27.2088 30.5762 25.627 31.7254 24.4515 30.8713L17.9695 26.1619C17.0932 25.5253 15.9068 25.5253 15.0305 26.1619L8.54852 30.8713C7.37295 31.7254 5.79123 30.5762 6.24026 29.1943L8.71617 21.5742C9.05085 20.5441 8.68421 19.4157 7.80799 18.7791L1.32597 14.0697C0.150403 13.2156 0.754565 11.3561 2.20765 11.3561H10.2199C11.3029 11.3561 12.2628 10.6587 12.5975 9.62868L15.0734 2.00861Z" fill="white" stroke="white"/>
</svg>
